<svg width="512" height="512" viewBox="0 0 512 512" fill="none" xmlns="http://www.w3.org/2000/svg">
<path d="M99.244 98.1527L33.7817 316.353L114.514 320.716L184.337 117.793H426.541L454.907 32.6934H182.155C129.792 39.6771 105.059 79.2416 99.244 98.1527Z" fill="#FF0000"/>
<path d="M166.854 338.174L118.847 480H182.125C217.036 480 213.03 434.539 236.677 401.452H363.232C415.603 401.452 422.147 366.533 437.417 331.622C455.167 291.06 473.788 211.618 478.88 172.337H239.119C204.208 208.998 201.766 241.437 201.766 253.074H347.954H373.775L347.954 316.352H206.128C185.185 316.352 171.217 330.9 166.854 338.174Z" fill="#FF0000"/>
</svg>
